<svg id="Baloran_Logo" data-name="Baloran Logo" xmlns="http://www.w3.org/2000/svg" xmlns:xlink="http://www.w3.org/1999/xlink" width="287.001" height="63.8" viewBox="0 0 287.001 63.8">
  <defs>
    <linearGradient id="linear-gradient" x1="0.5" x2="0.5" y2="1" gradientUnits="objectBoundingBox">
      <stop offset="0" stop-color="#fff" stop-opacity="0.486"/>
      <stop offset="1" stop-color="#e5e52b"/>
    </linearGradient>
    <filter id="Polygone_1" x="4" y="29.906" width="28.294" height="26.83" filterUnits="userSpaceOnUse">
      <feOffset dy="3" input="SourceAlpha"/>
      <feGaussianBlur stdDeviation="3" result="blur"/>
      <feFlood flood-opacity="0.161"/>
      <feComposite operator="in" in2="blur"/>
      <feComposite in="SourceGraphic"/>
    </filter>
  </defs>
  <g id="Rectangle_3" data-name="Rectangle 3" transform="translate(33 0.05)" fill="none" stroke="#fff" stroke-width="1">
    <path d="M0,0H240a14,14,0,0,1,14,14V50a0,0,0,0,1,0,0H0a0,0,0,0,1,0,0V0A0,0,0,0,1,0,0Z" stroke="none"/>
    <path d="M1,.5H240A13.5,13.5,0,0,1,253.5,14V49a.5.5,0,0,1-.5.5H1A.5.5,0,0,1,.5,49V1A.5.5,0,0,1,1,.5Z" fill="none"/>
  </g>
  <text id="BALORAN" transform="translate(158.501 40)" fill="#fff" font-size="44" font-family="AndaleMono, Andale Mono" letter-spacing="0.15em"><tspan x="-112" y="0">BALORAN</tspan></text>
  <path id="Exclusion_1" data-name="Exclusion 1" d="M242,11.5H0V-1H254v.5a11.923,11.923,0,0,1-3.515,8.486A11.921,11.921,0,0,1,242,11.5ZM204.655,2.344a2,2,0,0,0-1.7.877,3.861,3.861,0,0,0-.63,2.3,5.8,5.8,0,0,0,.215,1.589,2.413,2.413,0,0,0,.671,1.161,1.445,1.445,0,0,0,.973.406,1.011,1.011,0,0,0,.514-.14,1.572,1.572,0,0,0,.453-.418l.335.462h.694v-3.3h-1.8V6.382h.471v.383a1.19,1.19,0,0,1-.086.514.278.278,0,0,1-.261.172c-.227,0-.41-.169-.543-.5a3.78,3.78,0,0,1-.2-1.356,3.022,3.022,0,0,1,.294-1.45.961.961,0,0,1,.892-.532,1.645,1.645,0,0,1,1.006.453V2.7A2.393,2.393,0,0,0,204.655,2.344Zm-21.739,0a2,2,0,0,0-1.7.877,3.86,3.86,0,0,0-.631,2.3A5.8,5.8,0,0,0,180.8,7.1a2.413,2.413,0,0,0,.671,1.161,1.445,1.445,0,0,0,.973.406,1.013,1.013,0,0,0,.515-.14,1.6,1.6,0,0,0,.453-.418l.334.462h.694v-3.3h-1.8V6.382h.471v.383a1.2,1.2,0,0,1-.085.514.28.28,0,0,1-.262.172c-.227,0-.41-.169-.543-.5a3.78,3.78,0,0,1-.2-1.356,3.022,3.022,0,0,1,.294-1.45.961.961,0,0,1,.892-.532,1.64,1.64,0,0,1,1.006.453V2.7A2.393,2.393,0,0,0,182.917,2.344Zm-12.669,0a1.779,1.779,0,0,0-1.076.384,2.485,2.485,0,0,0-.8,1.125,4.653,4.653,0,0,0-.285,1.672,4.061,4.061,0,0,0,.585,2.246,1.864,1.864,0,0,0,1.652.9A2.006,2.006,0,0,0,172,7.8a3.83,3.83,0,0,0,.646-2.327A3.706,3.706,0,0,0,172,3.183,2.1,2.1,0,0,0,170.248,2.344Zm-114.369,0a1.959,1.959,0,0,0-1.256.442,2.591,2.591,0,0,0-.811,1.18,4.666,4.666,0,0,0-.262,1.564,3.922,3.922,0,0,0,.611,2.241,1.9,1.9,0,0,0,1.643.9,2.393,2.393,0,0,0,1.011-.25V7.042a1.3,1.3,0,0,1-.769.329.865.865,0,0,1-.762-.49A2.564,2.564,0,0,1,55,5.578a2.963,2.963,0,0,1,.288-1.451.878.878,0,0,1,.784-.5,1.055,1.055,0,0,1,.747.343v-1.4A2.314,2.314,0,0,0,55.878,2.344ZM239.7,6.052h.131a.505.505,0,0,1,.437.2,1.442,1.442,0,0,1,.2.628l.229,1.7h1.564l-.418-1.947a1.206,1.206,0,0,0-1.028-1.055,2.205,2.205,0,0,0,1-.648,1.542,1.542,0,0,0,.331-1,1.354,1.354,0,0,0-.464-1.1,1.831,1.831,0,0,0-1.21-.387h-2.2V8.575H239.7V6.053ZM227.439,7.357h1.169l.215,1.218h1.556l-1.613-6.131h-1.419l-1.6,6.131h1.463l.228-1.217ZM214.472,2.444V8.575h3.494V7.322H215.9V6h1.925V4.8H215.9V3.679h2.066V2.444Zm-57.367,0V8.575h3.4V7.322h-1.968V2.444Zm-10.88,4.913h1.169l.215,1.218h1.555l-1.613-6.131h-1.419l-1.6,6.131H146l.228-1.217ZM133.907,5.13h.079c.111.422.272.927.479,1.5l.7,1.942h1.451V2.444h-1.372v2.4l.035,1.037H135.2c-.108-.411-.269-.915-.479-1.5l-.7-1.942h-1.454V8.575h1.371V6.167l-.035-1.036ZM121.722,7.357h1.169l.215,1.218h1.555l-1.613-6.131H121.63l-1.6,6.131h1.463l.228-1.217ZM98.67,2.444V3.688h1.2V8.575H101.3V3.688h1.244V2.444ZM87.855,5.13h.079c.111.422.272.927.479,1.5l.7,1.942h1.45V2.444H89.192v2.4l.035,1.037h-.075c-.112-.423-.273-.927-.48-1.5l-.7-1.942H86.52V8.575H87.89V6.167l-.035-1.036ZM74.862,2.444V8.575h3.493V7.322H76.289V6h1.925V4.8H76.289V3.679h2.066V2.444Zm-9.8,0V8.575H66.5V2.444Zm-21.127,0V8.575h1.441V2.444Zm-11.509,0V8.575H33.85V6.149h1.837v-1.2H33.85V3.679h1.986V2.444Zm-11.5,0V8.575h1.428V6.149h1.837v-1.2H22.351V3.679h1.986V2.444Zm-11.689,0V8.575h3.494V7.322H10.661V6h1.925V4.8H10.661V3.679h2.066V2.444ZM170.349,7.362c-.26,0-.466-.168-.613-.5a3.463,3.463,0,0,1-.222-1.373,3.328,3.328,0,0,1,.229-1.358.72.72,0,0,1,.659-.5c.219,0,.409.161.565.477a3.18,3.18,0,0,1,.235,1.364,3.378,3.378,0,0,1-.233,1.372C170.815,7.189,170.606,7.362,170.349,7.362Zm58.061-1.1h-.773l.391-2.14.381,2.139Zm-81.214,0h-.774l.391-2.14.382,2.139Zm-24.5,0h-.774l.391-2.14.382,2.139Zm117.313-1.31H239.7V3.635h.378a.635.635,0,0,1,.465.154.63.63,0,0,1,.154.462.732.732,0,0,1-.176.5A.65.65,0,0,1,240.007,4.949Z" transform="translate(33.001 52.05)" fill="url(#linear-gradient)"/>
  <path id="Union_1" data-name="Union 1" d="M32,63.75h-.009a31.157,31.157,0,0,1-12.074-2.461A33.357,33.357,0,0,1,9.7,54.594a31.954,31.954,0,0,1-7.065-9.883A28.875,28.875,0,0,1,0,32.678,32.544,32.544,0,0,1,9.372,9.748,31.876,31.876,0,0,1,19.544,2.8,31.437,31.437,0,0,1,32,.25Zm-.369-55.5a23.256,23.256,0,0,0-9.214,1.885,23.58,23.58,0,0,0-7.524,5.141A24.077,24.077,0,0,0,7.959,32.239a21.365,21.365,0,0,0,1.952,8.9,23.638,23.638,0,0,0,5.226,7.311A24.677,24.677,0,0,0,22.693,53.4a23.067,23.067,0,0,0,8.938,1.822V8.25Z" transform="translate(0 0.05)" fill="url(#linear-gradient)"/>
  <g transform="matrix(1, 0, 0, 1, 0, 0)" filter="url(#Polygone_1)">
    <path id="Polygone_1-2" data-name="Polygone 1" d="M2.5,0,5,9H0Z" transform="translate(15.5 44.74) rotate(-120)" fill="url(#linear-gradient)"/>
  </g>
</svg>
