<svg id="Baloran_Vignette" data-name="Baloran Vignette" xmlns="http://www.w3.org/2000/svg" xmlns:xlink="http://www.w3.org/1999/xlink" width="287.001" height="117.322" viewBox="0 0 287.001 117.322">
  <defs>
    <linearGradient id="linear-gradient" x1="0.5" x2="0.5" y2="1" gradientUnits="objectBoundingBox">
      <stop offset="0" stop-color="#e5e52b"/>
      <stop offset="1" stop-color="#fff" stop-opacity="0.475"/>
    </linearGradient>
    <filter id="Soustraction_2" x="91.839" y="65.941" width="133.192" height="49.544" filterUnits="userSpaceOnUse">
      <feOffset dx="3" dy="3" input="SourceAlpha"/>
      <feGaussianBlur stdDeviation="3" result="blur"/>
      <feFlood flood-opacity="0.161"/>
      <feComposite operator="in" in2="blur"/>
      <feComposite in="SourceGraphic"/>
    </filter>
    <linearGradient id="linear-gradient-2" x1="0.5" x2="0.5" y2="1" gradientUnits="objectBoundingBox">
      <stop offset="0" stop-color="#fff" stop-opacity="0.486"/>
      <stop offset="1" stop-color="#e5e52b"/>
    </linearGradient>
    <filter id="Polygone_1" x="4" y="29.906" width="28.294" height="26.83" filterUnits="userSpaceOnUse">
      <feOffset dy="3" input="SourceAlpha"/>
      <feGaussianBlur stdDeviation="3" result="blur-2"/>
      <feFlood flood-opacity="0.161"/>
      <feComposite operator="in" in2="blur-2"/>
      <feComposite in="SourceGraphic"/>
    </filter>
  </defs>
  <g id="The_Pool" data-name="The Pool" transform="translate(97.839 69.941)">
    <text id="Prototype_Alpha_2021" data-name="Prototype Alpha 2021" transform="translate(2 43.382)" fill="#fff" font-size="8" font-family="Monaco" letter-spacing="0.1em"><tspan x="0" y="0">PROTOTYPE ALPHA 2021</tspan></text>
    <g transform="matrix(1, 0, 0, 1, -97.84, -69.94)" filter="url(#Soustraction_2)">
      <path id="Soustraction_2-2" data-name="Soustraction 2" d="M67.144,44.663H61.171a4.214,4.214,0,0,1-.956-3.9c.869-2.622,4.915-3.859,4.956-3.871,0,0-.117-.006-.306-.006a11.858,11.858,0,0,0-5.037,1.125,7.586,7.586,0,0,0-4.292,6.654H50.294c-1.9-2.521-2.5-4.9-1.8-7.078.432-1.33,1.62-3.3,4.826-5.153a20.108,20.108,0,0,1,3.69-1.654c-.006,0-.2-.011-.525-.011a19.939,19.939,0,0,0-8.712,2.009,13.033,13.033,0,0,0-4.835,4.159,15.124,15.124,0,0,0-2.5,7.728H35.217a4,4,0,0,1-.558-3.461c.713-2.023,3.262-2.978,3.288-2.988,0,0-.082-.005-.208-.005a6.8,6.8,0,0,0-3.41.934c-1.761,1.071-2.742,2.928-2.915,5.52H26.9c-1.465-1.894-1.938-3.685-1.408-5.325.333-1.029,1.267-2.556,3.828-3.986a16.2,16.2,0,0,1,2.953-1.28c-.005,0-.156-.009-.418-.009a16.34,16.34,0,0,0-6.908,1.533,10.264,10.264,0,0,0-3.838,3.173,11.277,11.277,0,0,0-1.995,5.894h-4.07a4.231,4.231,0,0,1-.713-3.766c.805-2.325,3.966-3.422,4-3.433,0,0-.089-.006-.251-.006a8.7,8.7,0,0,0-4.11,1.042c-2.122,1.2-3.3,3.269-3.51,6.163H6.593A3.358,3.358,0,0,1,6,41.639c.672-1.934,3.409-2.848,3.437-2.857,0,0-.082,0-.214,0a7.721,7.721,0,0,0-3.51.851A5.827,5.827,0,0,0,2.7,44.662H0V13.118H115.192V44.661H104.4c-1.611-1.8-2.184-3.506-1.705-5.077.329-1.078,1.362-2.677,4.422-4.175a20.8,20.8,0,0,1,3.558-1.339c-.005,0-.18-.008-.485-.008a21.72,21.72,0,0,0-8.039,1.532,11.743,11.743,0,0,0-4.471,3.173,10.3,10.3,0,0,0-2.329,5.895h-4.6a3.883,3.883,0,0,1-.878-3.6c.812-2.44,4.6-3.59,4.642-3.6,0,0-.1-.006-.287-.006a11.177,11.177,0,0,0-4.71,1.043,7.043,7.043,0,0,0-4.022,6.163H80.13a2.069,2.069,0,0,1-.471-1.943c.481-1.413,2.829-2.08,2.853-2.086,0,0-.065,0-.176,0a7.28,7.28,0,0,0-2.857.584,4.027,4.027,0,0,0-2.485,3.449H72.446a4.366,4.366,0,0,1-.881-3.976c.865-2.565,4.6-3.775,4.634-3.787,0,0-.11-.006-.288-.006a10.6,10.6,0,0,0-4.737,1.124,7.606,7.606,0,0,0-4.031,6.646Zm25.686-27.8a4.786,4.786,0,0,0-2.383.6,5.81,5.81,0,0,0-1.806,1.6,7.642,7.642,0,0,0-1.155,2.31,9.169,9.169,0,0,0-.41,2.74,9.507,9.507,0,0,0,.4,2.751,7.851,7.851,0,0,0,1.145,2.352,5.778,5.778,0,0,0,1.805,1.638,4.725,4.725,0,0,0,2.384.609,4.783,4.783,0,0,0,2.394-.609,5.737,5.737,0,0,0,1.816-1.638,8.041,8.041,0,0,0,1.155-2.352,9.275,9.275,0,0,0,.409-2.751,9.17,9.17,0,0,0-.409-2.74,7.641,7.641,0,0,0-1.155-2.31,5.809,5.809,0,0,0-1.806-1.6A4.786,4.786,0,0,0,92.831,16.86Zm-14.952,0a4.792,4.792,0,0,0-2.384.6,5.815,5.815,0,0,0-1.805,1.6,7.647,7.647,0,0,0-1.156,2.31,9.2,9.2,0,0,0-.41,2.74,9.507,9.507,0,0,0,.4,2.751,7.845,7.845,0,0,0,1.144,2.352,5.785,5.785,0,0,0,1.806,1.638,4.724,4.724,0,0,0,2.383.609,4.778,4.778,0,0,0,2.394-.609,5.743,5.743,0,0,0,1.817-1.638,8.04,8.04,0,0,0,1.155-2.352,9.3,9.3,0,0,0,.409-2.751,9.2,9.2,0,0,0-.409-2.74,7.641,7.641,0,0,0-1.155-2.31,5.822,5.822,0,0,0-1.806-1.6A4.79,4.79,0,0,0,77.879,16.86Zm24.737.357v13.9H110.3v-1.49h-6.026V17.217Zm-42.651,0h0v13.9h1.66V25.155h3.38a3.127,3.127,0,0,0,1.5-.368,3.821,3.821,0,0,0,1.155-.945,4.507,4.507,0,0,0,.735-1.281,4,4,0,0,0,.262-1.4,3.806,3.806,0,0,0-.262-1.344,4.568,4.568,0,0,0-.735-1.271,3.973,3.973,0,0,0-1.155-.955,3.064,3.064,0,0,0-1.5-.378h-5.04Zm-29.757,0v13.9H38.9v-1.49H31.867V24.692H38.21V23.2H31.867V18.707h6.741v-1.49ZM17.714,24.5h6.195v6.615h1.68v-13.9h-1.68v5.8H17.714v-5.8h-1.68v13.9h1.68V24.5ZM2.887,17.217v1.49H6.836V31.118h1.68V18.707h3.947v-1.49Zm89.943,12.7a3.279,3.279,0,0,1-1.68-.43,3.754,3.754,0,0,1-1.238-1.2,5.861,5.861,0,0,1-.767-1.838,9.935,9.935,0,0,1-.263-2.352,9.275,9.275,0,0,1,.274-2.331,5.943,5.943,0,0,1,.777-1.806A3.59,3.59,0,0,1,91.172,18.8a3.365,3.365,0,0,1,1.659-.41,3.415,3.415,0,0,1,1.68.41,3.594,3.594,0,0,1,1.238,1.165,5.742,5.742,0,0,1,.767,1.806,9.68,9.68,0,0,1,.263,2.331,9.936,9.936,0,0,1-.263,2.352,5.861,5.861,0,0,1-.767,1.838,3.754,3.754,0,0,1-1.238,1.2A3.279,3.279,0,0,1,92.831,29.921Zm-14.952,0a3.274,3.274,0,0,1-1.68-.43,3.766,3.766,0,0,1-1.239-1.2,5.881,5.881,0,0,1-.766-1.838,9.891,9.891,0,0,1-.263-2.352,9.318,9.318,0,0,1,.273-2.331,5.947,5.947,0,0,1,.778-1.806A3.594,3.594,0,0,1,76.219,18.8a3.372,3.372,0,0,1,1.66-.41,3.408,3.408,0,0,1,1.679.41A3.59,3.59,0,0,1,80.8,19.967a5.784,5.784,0,0,1,.767,1.806,9.684,9.684,0,0,1,.262,2.331,9.94,9.94,0,0,1-.262,2.352,5.9,5.9,0,0,1-.767,1.838,3.749,3.749,0,0,1-1.239,1.2A3.272,3.272,0,0,1,77.879,29.921ZM64.838,23.664H61.625V18.707h3.213a1.533,1.533,0,0,1,.777.221,2.318,2.318,0,0,1,.651.567,2.97,2.97,0,0,1,.441.788,2.466,2.466,0,0,1,.168.882,2.427,2.427,0,0,1-.178.893,3.031,3.031,0,0,1-.473.808,2.644,2.644,0,0,1-.652.578A1.387,1.387,0,0,1,64.838,23.664Z" transform="translate(97.84 58.82)" fill="url(#linear-gradient)"/>
    </g>
  </g>
  <g id="Baloran_Logo" data-name="Baloran Logo">
    <g id="Rectangle_3" data-name="Rectangle 3" transform="translate(33 0.05)" fill="none" stroke="#fff" stroke-width="1">
      <path d="M0,0H240a14,14,0,0,1,14,14V50a0,0,0,0,1,0,0H0a0,0,0,0,1,0,0V0A0,0,0,0,1,0,0Z" stroke="none"/>
      <path d="M1,.5H240A13.5,13.5,0,0,1,253.5,14V49a.5.5,0,0,1-.5.5H1A.5.5,0,0,1,.5,49V1A.5.5,0,0,1,1,.5Z" fill="none"/>
    </g>
    <text id="BALORAN" transform="translate(158.501 40)" fill="#fff" font-size="44" font-family="AndaleMono, Andale Mono" letter-spacing="0.15em"><tspan x="-112" y="0">BALORAN</tspan></text>
    <path id="Exclusion_1" data-name="Exclusion 1" d="M242,11.5H0V-1H254v.5a11.923,11.923,0,0,1-3.515,8.486A11.921,11.921,0,0,1,242,11.5ZM204.655,2.344a2,2,0,0,0-1.7.877,3.861,3.861,0,0,0-.63,2.3,5.8,5.8,0,0,0,.215,1.589,2.413,2.413,0,0,0,.671,1.161,1.445,1.445,0,0,0,.973.406,1.011,1.011,0,0,0,.514-.14,1.572,1.572,0,0,0,.453-.418l.335.462h.694v-3.3h-1.8V6.382h.471v.383a1.19,1.19,0,0,1-.086.514.278.278,0,0,1-.261.172c-.227,0-.41-.169-.543-.5a3.78,3.78,0,0,1-.2-1.356,3.022,3.022,0,0,1,.294-1.45.961.961,0,0,1,.892-.532,1.645,1.645,0,0,1,1.006.453V2.7A2.393,2.393,0,0,0,204.655,2.344Zm-21.739,0a2,2,0,0,0-1.7.877,3.86,3.86,0,0,0-.631,2.3A5.8,5.8,0,0,0,180.8,7.1a2.413,2.413,0,0,0,.671,1.161,1.445,1.445,0,0,0,.973.406,1.013,1.013,0,0,0,.515-.14,1.6,1.6,0,0,0,.453-.418l.334.462h.694v-3.3h-1.8V6.382h.471v.383a1.2,1.2,0,0,1-.085.514.28.28,0,0,1-.262.172c-.227,0-.41-.169-.543-.5a3.78,3.78,0,0,1-.2-1.356,3.022,3.022,0,0,1,.294-1.45.961.961,0,0,1,.892-.532,1.64,1.64,0,0,1,1.006.453V2.7A2.393,2.393,0,0,0,182.917,2.344Zm-12.669,0a1.779,1.779,0,0,0-1.076.384,2.485,2.485,0,0,0-.8,1.125,4.653,4.653,0,0,0-.285,1.672,4.061,4.061,0,0,0,.585,2.246,1.864,1.864,0,0,0,1.652.9A2.006,2.006,0,0,0,172,7.8a3.83,3.83,0,0,0,.646-2.327A3.706,3.706,0,0,0,172,3.183,2.1,2.1,0,0,0,170.248,2.344Zm-114.369,0a1.959,1.959,0,0,0-1.256.442,2.591,2.591,0,0,0-.811,1.18,4.666,4.666,0,0,0-.262,1.564,3.922,3.922,0,0,0,.611,2.241,1.9,1.9,0,0,0,1.643.9,2.393,2.393,0,0,0,1.011-.25V7.042a1.3,1.3,0,0,1-.769.329.865.865,0,0,1-.762-.49A2.564,2.564,0,0,1,55,5.578a2.963,2.963,0,0,1,.288-1.451.878.878,0,0,1,.784-.5,1.055,1.055,0,0,1,.747.343v-1.4A2.314,2.314,0,0,0,55.878,2.344ZM239.7,6.052h.131a.505.505,0,0,1,.437.2,1.442,1.442,0,0,1,.2.628l.229,1.7h1.564l-.418-1.947a1.206,1.206,0,0,0-1.028-1.055,2.205,2.205,0,0,0,1-.648,1.542,1.542,0,0,0,.331-1,1.354,1.354,0,0,0-.464-1.1,1.831,1.831,0,0,0-1.21-.387h-2.2V8.575H239.7V6.053ZM227.439,7.357h1.169l.215,1.218h1.556l-1.613-6.131h-1.419l-1.6,6.131h1.463l.228-1.217ZM214.472,2.444V8.575h3.494V7.322H215.9V6h1.925V4.8H215.9V3.679h2.066V2.444Zm-57.367,0V8.575h3.4V7.322h-1.968V2.444Zm-10.88,4.913h1.169l.215,1.218h1.555l-1.613-6.131h-1.419l-1.6,6.131H146l.228-1.217ZM133.907,5.13h.079c.111.422.272.927.479,1.5l.7,1.942h1.451V2.444h-1.372v2.4l.035,1.037H135.2c-.108-.411-.269-.915-.479-1.5l-.7-1.942h-1.454V8.575h1.371V6.167l-.035-1.036ZM121.722,7.357h1.169l.215,1.218h1.555l-1.613-6.131H121.63l-1.6,6.131h1.463l.228-1.217ZM98.67,2.444V3.688h1.2V8.575H101.3V3.688h1.244V2.444ZM87.855,5.13h.079c.111.422.272.927.479,1.5l.7,1.942h1.45V2.444H89.192v2.4l.035,1.037h-.075c-.112-.423-.273-.927-.48-1.5l-.7-1.942H86.52V8.575H87.89V6.167l-.035-1.036ZM74.862,2.444V8.575h3.493V7.322H76.289V6h1.925V4.8H76.289V3.679h2.066V2.444Zm-9.8,0V8.575H66.5V2.444Zm-21.127,0V8.575h1.441V2.444Zm-11.509,0V8.575H33.85V6.149h1.837v-1.2H33.85V3.679h1.986V2.444Zm-11.5,0V8.575h1.428V6.149h1.837v-1.2H22.351V3.679h1.986V2.444Zm-11.689,0V8.575h3.494V7.322H10.661V6h1.925V4.8H10.661V3.679h2.066V2.444ZM170.349,7.362c-.26,0-.466-.168-.613-.5a3.463,3.463,0,0,1-.222-1.373,3.328,3.328,0,0,1,.229-1.358.72.72,0,0,1,.659-.5c.219,0,.409.161.565.477a3.18,3.18,0,0,1,.235,1.364,3.378,3.378,0,0,1-.233,1.372C170.815,7.189,170.606,7.362,170.349,7.362Zm58.061-1.1h-.773l.391-2.14.381,2.139Zm-81.214,0h-.774l.391-2.14.382,2.139Zm-24.5,0h-.774l.391-2.14.382,2.139Zm117.313-1.31H239.7V3.635h.378a.635.635,0,0,1,.465.154.63.63,0,0,1,.154.462.732.732,0,0,1-.176.5A.65.65,0,0,1,240.007,4.949Z" transform="translate(33.001 52.05)" fill="url(#linear-gradient-2)"/>
    <path id="Union_1" data-name="Union 1" d="M32,63.75h-.009a31.157,31.157,0,0,1-12.074-2.461A33.357,33.357,0,0,1,9.7,54.594a31.954,31.954,0,0,1-7.065-9.883A28.875,28.875,0,0,1,0,32.678,32.544,32.544,0,0,1,9.372,9.748,31.876,31.876,0,0,1,19.544,2.8,31.437,31.437,0,0,1,32,.25Zm-.369-55.5a23.256,23.256,0,0,0-9.214,1.885,23.58,23.58,0,0,0-7.524,5.141A24.077,24.077,0,0,0,7.959,32.239a21.365,21.365,0,0,0,1.952,8.9,23.638,23.638,0,0,0,5.226,7.311A24.677,24.677,0,0,0,22.693,53.4a23.067,23.067,0,0,0,8.938,1.822V8.25Z" transform="translate(0 0.05)" fill="url(#linear-gradient-2)"/>
    <g transform="matrix(1, 0, 0, 1, 0, 0)" filter="url(#Polygone_1)">
      <path id="Polygone_1-2" data-name="Polygone 1" d="M2.5,0,5,9H0Z" transform="translate(15.5 44.74) rotate(-120)" fill="url(#linear-gradient-2)"/>
    </g>
  </g>
</svg>
