<svg xmlns="http://www.w3.org/2000/svg" xmlns:xlink="http://www.w3.org/1999/xlink" width="133.192" height="51.382" viewBox="0 0 133.192 51.382">
  <defs>
    <linearGradient id="linear-gradient" x1="0.5" x2="0.5" y2="1" gradientUnits="objectBoundingBox">
      <stop offset="0" stop-color="#e5e52b"/>
      <stop offset="1" stop-color="#fff" stop-opacity="0.475"/>
    </linearGradient>
    <filter id="Soustraction_2" x="0" y="0" width="133.192" height="49.544" filterUnits="userSpaceOnUse">
      <feOffset dx="3" dy="3" input="SourceAlpha"/>
      <feGaussianBlur stdDeviation="3" result="blur"/>
      <feFlood flood-opacity="0.161"/>
      <feComposite operator="in" in2="blur"/>
      <feComposite in="SourceGraphic"/>
    </filter>
  </defs>
  <g id="The_Pool" data-name="The Pool" transform="translate(6 4)">
    <text id="Prototype_Alpha_2021" data-name="Prototype Alpha 2021" transform="translate(2 43.382)" fill="#fff" font-size="8" font-family="Monaco" letter-spacing="0.1em"><tspan x="0" y="0">PROTOTYPE ALPHA 2021</tspan></text>
    <g transform="matrix(1, 0, 0, 1, -6, -4)" filter="url(#Soustraction_2)">
      <path id="Soustraction_2-2" data-name="Soustraction 2" d="M67.144,44.663H61.171a4.214,4.214,0,0,1-.956-3.9c.869-2.622,4.915-3.859,4.956-3.871,0,0-.117-.006-.306-.006a11.858,11.858,0,0,0-5.037,1.125,7.586,7.586,0,0,0-4.292,6.654H50.294c-1.9-2.521-2.5-4.9-1.8-7.078.432-1.33,1.62-3.3,4.826-5.153a20.108,20.108,0,0,1,3.69-1.654c-.006,0-.2-.011-.525-.011a19.939,19.939,0,0,0-8.712,2.009,13.033,13.033,0,0,0-4.835,4.159,15.124,15.124,0,0,0-2.5,7.728H35.217a4,4,0,0,1-.558-3.461c.713-2.023,3.262-2.978,3.288-2.988,0,0-.082-.005-.208-.005a6.8,6.8,0,0,0-3.41.934c-1.761,1.071-2.742,2.928-2.915,5.52H26.9c-1.465-1.894-1.938-3.685-1.408-5.325.333-1.029,1.267-2.556,3.828-3.986a16.2,16.2,0,0,1,2.953-1.28c-.005,0-.156-.009-.418-.009a16.34,16.34,0,0,0-6.908,1.533,10.264,10.264,0,0,0-3.838,3.173,11.277,11.277,0,0,0-1.995,5.894h-4.07a4.231,4.231,0,0,1-.713-3.766c.805-2.325,3.966-3.422,4-3.433,0,0-.089-.006-.251-.006a8.7,8.7,0,0,0-4.11,1.042c-2.122,1.2-3.3,3.269-3.51,6.163H6.593A3.358,3.358,0,0,1,6,41.639c.672-1.934,3.409-2.848,3.437-2.857,0,0-.082,0-.214,0a7.721,7.721,0,0,0-3.51.851A5.827,5.827,0,0,0,2.7,44.662H0V13.118H115.192V44.661H104.4c-1.611-1.8-2.184-3.506-1.705-5.077.329-1.078,1.362-2.677,4.422-4.175a20.8,20.8,0,0,1,3.558-1.339c-.005,0-.18-.008-.485-.008a21.72,21.72,0,0,0-8.039,1.532,11.743,11.743,0,0,0-4.471,3.173,10.3,10.3,0,0,0-2.329,5.895h-4.6a3.883,3.883,0,0,1-.878-3.6c.812-2.44,4.6-3.59,4.642-3.6,0,0-.1-.006-.287-.006a11.177,11.177,0,0,0-4.71,1.043,7.043,7.043,0,0,0-4.022,6.163H80.13a2.069,2.069,0,0,1-.471-1.943c.481-1.413,2.829-2.08,2.853-2.086,0,0-.065,0-.176,0a7.28,7.28,0,0,0-2.857.584,4.027,4.027,0,0,0-2.485,3.449H72.446a4.366,4.366,0,0,1-.881-3.976c.865-2.565,4.6-3.775,4.634-3.787,0,0-.11-.006-.288-.006a10.6,10.6,0,0,0-4.737,1.124,7.606,7.606,0,0,0-4.031,6.646Zm25.686-27.8a4.786,4.786,0,0,0-2.383.6,5.81,5.81,0,0,0-1.806,1.6,7.642,7.642,0,0,0-1.155,2.31,9.169,9.169,0,0,0-.41,2.74,9.507,9.507,0,0,0,.4,2.751,7.851,7.851,0,0,0,1.145,2.352,5.778,5.778,0,0,0,1.805,1.638,4.725,4.725,0,0,0,2.384.609,4.783,4.783,0,0,0,2.394-.609,5.737,5.737,0,0,0,1.816-1.638,8.041,8.041,0,0,0,1.155-2.352,9.275,9.275,0,0,0,.409-2.751,9.17,9.17,0,0,0-.409-2.74,7.641,7.641,0,0,0-1.155-2.31,5.809,5.809,0,0,0-1.806-1.6A4.786,4.786,0,0,0,92.831,16.86Zm-14.952,0a4.792,4.792,0,0,0-2.384.6,5.815,5.815,0,0,0-1.805,1.6,7.647,7.647,0,0,0-1.156,2.31,9.2,9.2,0,0,0-.41,2.74,9.507,9.507,0,0,0,.4,2.751,7.845,7.845,0,0,0,1.144,2.352,5.785,5.785,0,0,0,1.806,1.638,4.724,4.724,0,0,0,2.383.609,4.778,4.778,0,0,0,2.394-.609,5.743,5.743,0,0,0,1.817-1.638,8.04,8.04,0,0,0,1.155-2.352,9.3,9.3,0,0,0,.409-2.751,9.2,9.2,0,0,0-.409-2.74,7.641,7.641,0,0,0-1.155-2.31,5.822,5.822,0,0,0-1.806-1.6A4.79,4.79,0,0,0,77.879,16.86Zm24.737.357v13.9H110.3v-1.49h-6.026V17.217Zm-42.651,0h0v13.9h1.66V25.155h3.38a3.127,3.127,0,0,0,1.5-.368,3.821,3.821,0,0,0,1.155-.945,4.507,4.507,0,0,0,.735-1.281,4,4,0,0,0,.262-1.4,3.806,3.806,0,0,0-.262-1.344,4.568,4.568,0,0,0-.735-1.271,3.973,3.973,0,0,0-1.155-.955,3.064,3.064,0,0,0-1.5-.378h-5.04Zm-29.757,0v13.9H38.9v-1.49H31.867V24.692H38.21V23.2H31.867V18.707h6.741v-1.49ZM17.714,24.5h6.195v6.615h1.68v-13.9h-1.68v5.8H17.714v-5.8h-1.68v13.9h1.68V24.5ZM2.887,17.217v1.49H6.836V31.118h1.68V18.707h3.947v-1.49Zm89.943,12.7a3.279,3.279,0,0,1-1.68-.43,3.754,3.754,0,0,1-1.238-1.2,5.861,5.861,0,0,1-.767-1.838,9.935,9.935,0,0,1-.263-2.352,9.275,9.275,0,0,1,.274-2.331,5.943,5.943,0,0,1,.777-1.806A3.59,3.59,0,0,1,91.172,18.8a3.365,3.365,0,0,1,1.659-.41,3.415,3.415,0,0,1,1.68.41,3.594,3.594,0,0,1,1.238,1.165,5.742,5.742,0,0,1,.767,1.806,9.68,9.68,0,0,1,.263,2.331,9.936,9.936,0,0,1-.263,2.352,5.861,5.861,0,0,1-.767,1.838,3.754,3.754,0,0,1-1.238,1.2A3.279,3.279,0,0,1,92.831,29.921Zm-14.952,0a3.274,3.274,0,0,1-1.68-.43,3.766,3.766,0,0,1-1.239-1.2,5.881,5.881,0,0,1-.766-1.838,9.891,9.891,0,0,1-.263-2.352,9.318,9.318,0,0,1,.273-2.331,5.947,5.947,0,0,1,.778-1.806A3.594,3.594,0,0,1,76.219,18.8a3.372,3.372,0,0,1,1.66-.41,3.408,3.408,0,0,1,1.679.41A3.59,3.59,0,0,1,80.8,19.967a5.784,5.784,0,0,1,.767,1.806,9.684,9.684,0,0,1,.262,2.331,9.94,9.94,0,0,1-.262,2.352,5.9,5.9,0,0,1-.767,1.838,3.749,3.749,0,0,1-1.239,1.2A3.272,3.272,0,0,1,77.879,29.921ZM64.838,23.664H61.625V18.707h3.213a1.533,1.533,0,0,1,.777.221,2.318,2.318,0,0,1,.651.567,2.97,2.97,0,0,1,.441.788,2.466,2.466,0,0,1,.168.882,2.427,2.427,0,0,1-.178.893,3.031,3.031,0,0,1-.473.808,2.644,2.644,0,0,1-.652.578A1.387,1.387,0,0,1,64.838,23.664Z" transform="translate(6 -7.12)" fill="url(#linear-gradient)"/>
    </g>
  </g>
</svg>
